<svg xmlns="http://www.w3.org/2000/svg" viewBox="0 0 456.53 516.54"><defs><style>.cls-1{fill:#414042;}.cls-2{fill:none;}.cls-3{fill:#231f20;}.cls-4{fill:#456b4d;}.cls-5{fill:#fd0;}.cls-6{fill:#afb6dc;}.cls-7{fill:#37673f;}.cls-8{fill:#e44f50;}.cls-9{fill:#efb7c0;}.cls-10{fill:#f1aaaf;}.cls-11{fill:#69539c;}.cls-12{fill:#fbd6db;}.cls-13{fill:#ffec5f;}.cls-14{fill:#f5ba3d;}.cls-15{fill:#f59cb0;}.cls-16{fill:#f26422;}.cls-17{fill:#85ab70;}.cls-18{fill:#8299ce;}.cls-19{fill:#db5c87;}.cls-20{fill:#887dba;}.cls-21{fill:#ffed96;}.cls-22{fill:#ece190;}.cls-23{fill:#f04e23;}.cls-24{fill:#8dc63f;}.cls-25{fill:#b2b1d9;}.cls-26{fill:#f47d20;}.cls-27{fill:#f9a01b;}.cls-28{fill:#fff197;}.cls-29{fill:#801d7f;}.cls-30{fill:#9669a4;}.cls-31{fill:#ffde17;}.cls-32{fill:#ac4a9c;}.cls-33{fill:#abc8e9;}.cls-34{fill:#a967aa;}.cls-35{fill:#b07e09;}.cls-36{fill:#855914;}.cls-37{fill:#98a2d1;}.cls-38{fill:#e3038c;}.cls-39{fill:#ce539e;}.cls-40{fill:#d56f7e;}.cls-41{fill:#406325;}.cls-42{fill:#96a5d4;}.cls-43{fill:#d7df23;}.cls-44{fill:#ea7e73;}</style></defs><title>Asset 2</title><g id="Layer_2" data-name="Layer 2"><g id="Layer_1-2" data-name="Layer 1"><path class="cls-1" d="M160.09,392.41l136.27.11A9.5,9.5,0,0,1,306.2,402a10.09,10.09,0,0,1-9.77,10.22l-136.26-.11a9.56,9.56,0,0,1-9.88-9.44A10.14,10.14,0,0,1,160.09,392.41Z"/><path class="cls-1" d="M160,421.68l136.29.11a9.54,9.54,0,0,1,9.86,9.45,10.13,10.13,0,0,1-9.8,10.21l-136.26-.11a9.56,9.56,0,0,1-9.87-9.44A10.14,10.14,0,0,1,160,421.68Z"/><path class="cls-1" d="M160,451l136.26.11a9.55,9.55,0,0,1,9.87,9.43,10.15,10.15,0,0,1-9.8,10.22l-136.28-.12a9.52,9.52,0,0,1-9.86-9.47A10.11,10.11,0,0,1,160,451Z"/><path class="cls-1" d="M182.93,480.23l90.43.07a9.65,9.65,0,0,1,9.85,9.55c0,5.44-8.52,8.46-15.69,9S244.43,516.51,228,516.54s-31.79-16.78-40.14-17.72c-6.11-.69-14.66-3.07-14.7-8.51A10.07,10.07,0,0,1,182.93,480.23Z"/><polygon class="cls-2" points="149.65 131.62 149.62 131.71 149.75 131.64 149.65 131.62"/><polygon class="cls-2" points="273.53 137.74 273.44 137.81 273.57 137.78 273.53 137.74"/><polygon class="cls-2" points="207.26 310.77 264.29 352.94 207.48 310.8 207.26 310.77"/><polygon class="cls-2" points="206.87 310.73 271.02 390.31 207.06 310.75 206.87 310.73"/><polygon class="cls-2" points="273.67 137.76 273.57 137.78 273.68 137.9 273.67 137.76"/><polygon class="cls-2" points="203.21 103.06 203.14 103.06 203.16 103.09 203.2 103.12 203.21 103.06"/><path class="cls-3" d="M365.17,260.73l-.07-.14-.06.2Z"/><polygon class="cls-3" points="201.64 200.61 237.16 207.93 209.26 189.22 201.64 200.61"/><polygon class="cls-4" points="189.48 218.78 237.16 207.93 201.64 200.61 189.48 218.78"/><polygon class="cls-5" points="156.86 267.55 237.16 207.93 189.48 218.78 156.86 267.55"/><polygon class="cls-6" points="189.48 218.78 141.62 229.68 156.86 267.55 189.48 218.78"/><polygon class="cls-7" points="209.26 189.22 237.16 207.93 217.81 176.44 209.26 189.22"/><polygon class="cls-8" points="277.7 187.36 217.81 176.44 237.16 207.93 258.9 211.06 277.7 187.36"/><polygon class="cls-9" points="258.9 211.06 309.94 218.41 277.7 187.36 258.9 211.06"/><polygon class="cls-10" points="240.77 144.86 222.76 124.85 196.11 140.5 217.81 176.44 240.77 144.86"/><polygon class="cls-11" points="309.94 218.41 319.43 204.27 277.7 187.36 309.94 218.41"/><polygon class="cls-12" points="273.44 137.81 240.77 144.86 217.81 176.44 273.44 137.81"/><polygon class="cls-13" points="217.81 176.44 196.11 140.5 178.81 168.81 209.26 189.22 217.81 176.44"/><polygon class="cls-14" points="201.64 200.61 164.11 192.87 141.62 229.68 189.48 218.78 201.64 200.61"/><polygon class="cls-15" points="178.81 168.81 164.11 192.87 201.64 200.61 209.26 189.22 178.81 168.81"/><polygon class="cls-16" points="335.3 180.64 359.24 165.6 323.78 143.25 312.47 158.37 335.3 180.64"/><polygon class="cls-17" points="277.7 187.36 319.43 204.27 303.32 170.59 277.7 187.36"/><polygon class="cls-18" points="319.43 204.27 335.3 180.64 303.32 170.59 319.43 204.27"/><polygon class="cls-19" points="203.2 103.12 203.16 103.09 149.75 131.64 196.11 140.5 203.2 103.12"/><polygon class="cls-17" points="283.92 130.53 280.94 109.4 248.26 109.87 273.53 137.74 283.92 130.53"/><polygon class="cls-5" points="222.76 124.85 248.26 109.87 203.21 103.06 203.2 103.12 222.76 124.85"/><polygon class="cls-20" points="273.44 137.81 273.53 137.74 248.26 109.87 240.77 144.86 273.44 137.81"/><polygon class="cls-5" points="276.48 172.43 273.68 137.9 273.57 137.78 273.44 137.81 217.81 176.44 276.48 172.43"/><polygon class="cls-21" points="303.32 170.59 335.3 180.64 312.47 158.37 303.32 170.59"/><polygon class="cls-4" points="323.78 143.25 283.92 130.53 312.47 158.37 323.78 143.25"/><polygon class="cls-6" points="283.92 130.53 308.98 109.29 308.86 109.01 280.94 109.4 283.92 130.53"/><polygon class="cls-8" points="323.78 143.25 308.98 109.29 283.92 130.53 323.78 143.25"/><polygon class="cls-22" points="240.77 144.86 248.26 109.87 222.76 124.85 240.77 144.86"/><polygon class="cls-17" points="206.69 310.21 207.48 310.8 207.48 310.8 264.29 352.94 248.17 315.8 206.69 310.21"/><polygon class="cls-7" points="264.29 352.94 279.39 319.64 268.88 318.35 264.29 352.94"/><polygon class="cls-18" points="248.17 315.8 264.29 352.94 268.88 318.35 248.17 315.8"/><polygon class="cls-14" points="268.88 318.35 279.39 319.64 298.82 276.77 273.16 286.09 268.88 318.35"/><polygon class="cls-10" points="240.43 297.96 206.69 310.21 248.17 315.8 240.43 297.96"/><polygon class="cls-13" points="248.17 315.8 268.88 318.35 273.16 286.09 240.43 297.96 248.17 315.8"/><polygon class="cls-21" points="126.77 185.17 99.69 160.14 96.38 211.47 126.77 185.17"/><polygon class="cls-11" points="96.38 211.47 95.64 222.96 110.01 225.06 126.77 185.17 96.38 211.47"/><path class="cls-13" d="M264.29,352.94l66.78-26.87.05-.07-51.73-6.36Z"/><path class="cls-23" d="M348.86,268.32,365,260.79l.06-.2-25.53-48.17Z"/><path class="cls-24" d="M356.27,283.93A169.15,169.15,0,0,0,365,260.79l-16.18,7.53Z"/><path class="cls-25" d="M370.8,205.36l-31.23,7.06,25.53,48.17a164.3,164.3,0,0,0,5.2-24.27A127.38,127.38,0,0,0,370.8,205.36Z"/><path class="cls-16" d="M279.39,319.64,331.12,326l.25-.36-32.55-48.87Z"/><polygon class="cls-26" points="203.2 103.12 196.11 140.5 222.76 124.85 203.2 103.12"/><polygon class="cls-27" points="277.7 187.36 303.32 170.59 276.48 172.43 277.7 187.36"/><polygon class="cls-25" points="303.32 170.59 273.68 137.9 276.48 172.43 303.32 170.59"/><polygon class="cls-28" points="217.81 176.44 277.7 187.36 276.48 172.43 217.81 176.44"/><polygon class="cls-5" points="273.57 137.78 273.67 137.76 273.68 137.9 303.32 170.59 312.47 158.37 283.92 130.53 273.53 137.74 273.57 137.78"/><polygon class="cls-29" points="222.59 256.85 278.22 247.95 250.82 221.24 222.59 256.85"/><polygon class="cls-18" points="237.16 207.93 222.59 256.85 250.82 221.24 237.16 207.93"/><polygon class="cls-22" points="302.95 255.09 309.94 218.41 278.22 247.95 302.95 255.09"/><polygon class="cls-13" points="157.22 267.29 218.26 271.38 229.21 272.11 222.59 256.85 157.22 267.29"/><polygon class="cls-22" points="143.05 188.53 141.62 229.68 164.11 192.87 143.05 188.53"/><polygon class="cls-30" points="156.6 390.03 218.75 390.18 201.56 361.56 156.6 390.03"/><polygon class="cls-22" points="258.9 211.06 237.16 207.93 250.82 221.24 258.9 211.06"/><polygon class="cls-5" points="250.82 221.24 278.22 247.95 309.94 218.41 258.9 211.06 250.82 221.24"/><path class="cls-28" d="M149.75,131.64l53.41-28.55,0,0-40.77-3a153.44,153.44,0,0,0-37.46,26.74l.14.13,24.6,4.7Z"/><path class="cls-31" d="M190.5,89a154,154,0,0,0-28.13,11l40.77,3Z"/><path class="cls-32" d="M125.05,126.92l-.23,0A137.36,137.36,0,0,0,99.73,160l44.8-14.15Z"/><path class="cls-33" d="M99.69,160.14l0,0a123.1,123.1,0,0,0-14.72,61.25l11.44-9.9Z"/><path class="cls-13" d="M144.53,145.84,99.73,160l0,.07v.08l27.08,25Z"/><path class="cls-28" d="M280.94,109.4l27.92-.39.25-.17a155.76,155.76,0,0,0-44.77-20.26l16.58,20.7Z"/><path class="cls-28" d="M340.81,136.83A148.87,148.87,0,0,0,309.34,109l-.36.3,14.8,34Z"/><path class="cls-34" d="M280.94,109.4l0-.12-16.58-20.7-.09,0-16,21.31Z"/><path class="cls-6" d="M264.25,88.56a141.13,141.13,0,0,0-35-5h-1.38A142,142,0,0,0,191,88.89l57.3,21Z"/><path class="cls-12" d="M203.21,103.06l45,6.81-57.3-21-.46.13,12.64,14Z"/><path class="cls-24" d="M111.36,305c8.08,13.39,16.8,25.19,24.35,36.43l13-38.51Z"/><path class="cls-5" d="M106.28,296.14q2.48,4.53,5.08,8.81l3-7.52Z"/><polygon class="cls-35" points="114.38 297.43 111.36 304.95 148.69 302.87 114.38 297.43"/><polygon class="cls-28" points="114.38 297.43 148.69 302.87 119.88 283.76 114.38 297.43"/><path class="cls-11" d="M119.88,283.76,93,265.92a182.37,182.37,0,0,0,13.29,30.22l8.1,1.29Z"/><path class="cls-21" d="M150.09,366.5a63.37,63.37,0,0,1,5.5,23.53h1l45-28.46Z"/><path class="cls-27" d="M136,341.81c5.62,8.39,10.57,16.48,14.09,24.69l51.47-4.93Z"/><polygon class="cls-36" points="207.06 310.75 206.82 310.44 207.26 310.77 207.48 310.8 207.48 310.8 206.69 310.21 201.56 361.56 270.46 390.31 271.02 390.31 206.87 310.73 207.06 310.75"/><path class="cls-7" d="M84.94,221.4A134,134,0,0,0,86,235.63a163.25,163.25,0,0,0,6.85,30L95.64,223Z"/><path class="cls-33" d="M95.64,223l-2.75,42.66,0,.08,0,0L110,225.06Z"/><path class="cls-5" d="M96.38,211.46l-11.44,9.9v0L95.64,223Z"/><polygon class="cls-35" points="218.75 390.18 270.46 390.31 201.56 361.56 218.75 390.18"/><polygon class="cls-37" points="207.26 310.77 206.82 310.44 207.06 310.75 271.02 390.31 271.3 390.31 264.29 352.94 207.26 310.77"/><path class="cls-5" d="M148.91,303.11l-.22-.24-13,38.51.29.43,65.56,19.76Z"/><polygon class="cls-23" points="110.01 225.06 92.94 265.68 141.62 229.68 110.01 225.06"/><path class="cls-3" d="M359.24,165.6l.19-.12a133.58,133.58,0,0,0-18.62-28.65l-17,6.42Z"/><polygon class="cls-5" points="110.01 225.06 141.62 229.68 126.77 185.17 110.01 225.06"/><polygon class="cls-7" points="126.77 185.17 141.62 229.68 143.05 188.53 126.77 185.17"/><polygon class="cls-14" points="201.56 361.56 206.69 310.21 175.55 306.27 201.56 361.56"/><polygon class="cls-14" points="157.22 267.29 222.59 256.85 237.16 207.93 156.86 267.55 148.69 302.87 175.55 306.27 157.22 267.29"/><polygon class="cls-38" points="148.69 302.87 148.91 303.11 201.56 361.56 175.55 306.27 148.69 302.87"/><polygon class="cls-27" points="144.53 145.84 126.77 185.17 143.05 188.53 144.53 145.84"/><polygon class="cls-14" points="149.75 131.64 149.62 131.71 144.53 145.84 196.11 140.5 149.75 131.64"/><polygon class="cls-17" points="149.62 131.71 149.65 131.62 125.05 126.92 144.53 145.84 149.62 131.71"/><polygon class="cls-39" points="164.11 192.87 178.81 168.81 144.53 145.84 143.05 188.53 164.11 192.87"/><polygon class="cls-25" points="196.11 140.5 144.53 145.84 178.81 168.81 196.11 140.5"/><polygon class="cls-40" points="141.62 229.68 119.88 283.76 148.69 302.87 156.86 267.55 141.62 229.68"/><path class="cls-21" d="M141.62,229.68l-48.68,36,0,.05a1.46,1.46,0,0,0,.07.19l26.89,17.84Z"/><path class="cls-21" d="M308.5,360.84c5.82-11.26,14-22.47,22.57-34.77l-66.78,26.87Z"/><path class="cls-14" d="M370.8,205.36q-.63-5.78-1.77-11.36l-29.46,18.42Z"/><path class="cls-10" d="M271.3,390.31l28.7.07c.31-10.36,3.55-20,8.5-29.54l-44.21-7.9Z"/><path class="cls-40" d="M319.43,204.27l20.14,8.15L369,194a123.1,123.1,0,0,0-4.13-15.16l-29.6,1.8Z"/><polygon class="cls-13" points="309.94 218.41 348.86 268.32 339.57 212.42 319.43 204.27 309.94 218.41"/><path class="cls-6" d="M335.3,180.64l29.6-1.8a123.89,123.89,0,0,0-5.47-13.36l-.19.12Z"/><polygon class="cls-33" points="157.22 267.29 206.69 310.21 218.26 271.38 157.22 267.29"/><polygon class="cls-41" points="175.55 306.27 206.69 310.21 157.22 267.29 175.55 306.27"/><polygon class="cls-36" points="273.16 286.09 298.82 276.77 274.61 275.15 273.16 286.09"/><polygon class="cls-16" points="240.43 297.96 273.16 286.09 274.61 275.15 229.21 272.11 240.43 297.96"/><polygon class="cls-39" points="229.21 272.11 218.26 271.38 206.69 310.21 240.43 297.96 229.21 272.11"/><polygon class="cls-42" points="302.95 255.09 348.86 268.32 309.94 218.41 302.95 255.09"/><polygon class="cls-9" points="229.21 272.11 274.61 275.15 278.22 247.95 222.59 256.85 229.21 272.11"/><polygon class="cls-30" points="278.22 247.95 274.61 275.15 298.82 276.77 302.95 255.09 278.22 247.95"/><polygon class="cls-28" points="298.82 276.77 348.86 268.32 302.95 255.09 298.82 276.77"/><path class="cls-5" d="M331.37,325.64c8.58-12.34,17.51-25.78,24.8-41.48l0-.08-57.39-7.31Z"/><path class="cls-26" d="M298.82,276.77l57.39,7.31.06-.15-7.41-15.61Z"/><path class="cls-39" d="M356.84,87.6c-4.27,4.32-4.64,11-.82,14.72s10.43,3.31,14.7-1l10.33-10.46-5.64-22Z"/><path class="cls-8" d="M378.62,65.54l-3.21,3.25,5.64,22L392.5,79.25c4.28-4.33,4.65-11,.83-14.72S382.9,61.22,378.62,65.54Z"/><path class="cls-20" d="M85.72,105.45c4.33,4.27,11,4.65,14.72.83s3.32-10.44-1-14.71L81.14,73.51,76.33,96.17Z"/><path class="cls-21" d="M76.33,96.17l4.81-22.66-3.77-3.72c-4.32-4.27-10.94-4.64-14.71-.83s-3.32,10.44,1,14.71Z"/><path class="cls-34" d="M375.17,368.17l.75,27.88c4.21,2.87,9.69,2.73,13-.6,3.77-3.82,3.31-10.44-1-14.71Z"/><path class="cls-21" d="M365.84,359c-4.33-4.27-10.95-4.65-14.72-.83s-3.31,10.44,1,14.71l22.06,21.78a12.27,12.27,0,0,0,1.73,1.43l-.75-27.88Z"/><path class="cls-14" d="M107.14,359.66c-3.82-3.77-10.43-3.31-14.71,1l-19.6,19.85,19.89,7.62,13.59-13.77C110.59,370.06,111,363.43,107.14,359.66Z"/><path class="cls-43" d="M70.65,382.73c-4.27,4.33-4.64,10.95-.82,14.72s10.43,3.31,14.7-1l8.19-8.29-19.89-7.62Z"/><polygon class="cls-9" points="228.5 30.72 239.64 38.69 239.5 16.08 228.5 30.72"/><path class="cls-22" d="M220.16,41.82v.29c0,6.08,4.46,11,9.82,11s9.72-5,9.68-11.11l0-3.3-11.14-8Z"/><path class="cls-27" d="M239.5,16.08l0-5.09c0-6.08-4.46-11-9.82-11S219.93,5,220,11.12l.09,13.55,8.45,6Z"/><polygon class="cls-43" points="220.05 24.68 220.16 41.82 228.5 30.72 220.05 24.68"/><polygon class="cls-43" points="34.43 235.66 16.66 235.77 22.87 244.04 34.43 235.66"/><path class="cls-10" d="M53.11,245.29c0-5.36-5-9.72-11.12-9.68l-7.56,0L22.87,244l8.36,11.14,10.88-.06C48.19,255.08,53.14,250.66,53.11,245.29Z"/><path class="cls-44" d="M16.66,235.77l-5.67,0c-6.08,0-11,4.46-11,9.83,0,4.38,3.37,8.08,7.9,9.27l15-10.86Z"/><path class="cls-43" d="M7.9,254.9a12.15,12.15,0,0,0,3.22.41l20.11-.13L22.87,244Z"/><path class="cls-5" d="M445.41,233.08h-1.57l-18.79,19.62,20.48-.13c6.08,0,11-4.45,11-9.82S451.49,233,445.41,233.08Z"/><path class="cls-10" d="M414.42,233.27c-6.08,0-11,4.46-11,9.82s5,9.73,11.12,9.69l10.51-.07,18.79-19.62Z"/></g></g></svg>