<svg xmlns="http://www.w3.org/2000/svg" viewBox="0 0 1018.29 834.85"><defs><style>.cls-1{isolation:isolate;}.cls-2{mix-blend-mode:multiply;}.cls-3{fill:#fff;}.cls-4{fill:#fefefe;}.cls-5{fill:#fdfdfd;}.cls-6{fill:#fcfcfc;}.cls-7{fill:#fbfbfb;}.cls-8{fill:#fafafa;}.cls-9{fill:#f9f9fa;}.cls-10{fill:#f8f8f9;}.cls-11{fill:#f7f8f8;}.cls-12{fill:#f6f7f7;}.cls-13{fill:#f5f6f6;}.cls-14{fill:#f4f5f5;}.cls-15{fill:#f3f4f4;}.cls-16{fill:#f2f3f3;}.cls-17{fill:#f1f2f2;}.cls-18{fill:#f0f1f1;}.cls-19{fill:#eff0f0;}.cls-20{fill:#eeefef;}.cls-21{fill:#edeeef;}.cls-22{fill:#ecedee;}.cls-23{fill:#ebeced;}.cls-24{fill:#eaebec;}.cls-25{fill:#e9eaeb;}.cls-26{fill:#e8e9ea;}.cls-27{fill:#e8e9e9;}.cls-28{fill:#e7e8e8;}.cls-29{fill:#e6e7e7;}.cls-30{fill:#e5e6e6;}.cls-31{fill:#e4e5e5;}.cls-32{fill:#e3e4e4;}.cls-33{fill:#e2e3e4;}.cls-34{fill:#e1e2e3;}.cls-35{fill:#e0e1e2;}.cls-36{fill:#dfe0e1;}.cls-37{fill:#dedfe0;}.cls-38{fill:#dddedf;}.cls-39{fill:#dcddde;}.cls-40{fill:#dbdcdd;}.cls-41{fill:#dadbdc;}.cls-42{fill:#d9dadb;}.cls-43{fill:#d8dada;}.cls-44{fill:#d7d9d9;}.cls-45{fill:#d6d8d9;}.cls-46{fill:#d5d7d8;}.cls-47{fill:#d4d6d7;}.cls-48{fill:#d3d5d6;}.cls-49{fill:#d2d4d5;}.cls-50{fill:#d1d3d4;}.cls-51{font-size:52px;font-family:ArialRoundedMTBold, Arial Rounded MT Bold;}.cls-52{letter-spacing:-0.13em;}.cls-53{fill:#414042;}.cls-54{fill:none;}.cls-55{fill:#231f20;}.cls-56{fill:#456b4d;}.cls-57{fill:#fd0;}.cls-58{fill:#afb6dc;}.cls-59{fill:#37673f;}.cls-60{fill:#e44f50;}.cls-61{fill:#efb7c0;}.cls-62{fill:#f1aaaf;}.cls-63{fill:#69539c;}.cls-64{fill:#fbd6db;}.cls-65{fill:#ffec5f;}.cls-66{fill:#f5ba3d;}.cls-67{fill:#f59cb0;}.cls-68{fill:#f26422;}.cls-69{fill:#85ab70;}.cls-70{fill:#8299ce;}.cls-71{fill:#db5c87;}.cls-72{fill:#887dba;}.cls-73{fill:#ffed96;}.cls-74{fill:#ece190;}.cls-75{fill:#f04e23;}.cls-76{fill:#8dc63f;}.cls-77{fill:#b2b1d9;}.cls-78{fill:#f47d20;}.cls-79{fill:#f9a01b;}.cls-80{fill:#fff197;}.cls-81{fill:#801d7f;}.cls-82{fill:#9669a4;}.cls-83{fill:#ffde17;}.cls-84{fill:#ac4a9c;}.cls-85{fill:#abc8e9;}.cls-86{fill:#a967aa;}.cls-87{fill:#b07e09;}.cls-88{fill:#855914;}.cls-89{fill:#98a2d1;}.cls-90{fill:#e3038c;}.cls-91{fill:#ce539e;}.cls-92{fill:#d56f7e;}.cls-93{fill:#406325;}.cls-94{fill:#96a5d4;}.cls-95{fill:#d7df23;}.cls-96{fill:#ea7e73;}.cls-97{letter-spacing:-0.02em;}</style></defs><title>Asset 1</title><g class="cls-1"><g id="Layer_2" data-name="Layer 2"><g id="Layer_1-2" data-name="Layer 1"><g class="cls-2"><path class="cls-3" d="M513.29,799.72c0,19.4,97.42,35.13,217.6,35.13s217.6-15.73,217.6-35.13-97.42-35.12-217.6-35.12S513.29,780.32,513.29,799.72Z"/><path class="cls-4" d="M517.33,799.46c0,19,95.62,34.49,213.56,34.49s213.55-15.44,213.55-34.49S848.83,765,730.89,765,517.33,780.4,517.33,799.46Z"/><path class="cls-5" d="M521.38,799.19c0,18.7,93.8,33.87,209.51,33.87S940.4,817.89,940.4,799.19s-93.8-33.87-209.51-33.87S521.38,780.48,521.38,799.19Z"/><path class="cls-6" d="M525.42,798.92c0,18.36,92,33.24,205.47,33.24s205.46-14.88,205.46-33.24-92-33.24-205.46-33.24S525.42,780.57,525.42,798.92Z"/><path class="cls-7" d="M529.47,798.66c0,18,90.18,32.61,201.42,32.61s201.42-14.6,201.42-32.61S842.13,766,730.89,766,529.47,780.65,529.47,798.66Z"/><path class="cls-8" d="M533.52,798.39c0,17.66,88.36,32,197.37,32s197.37-14.32,197.37-32-88.36-32-197.37-32S533.52,780.73,533.52,798.39Z"/><path class="cls-9" d="M537.56,798.12c0,17.32,86.56,31.36,193.33,31.36s193.33-14,193.33-31.36-86.56-31.35-193.33-31.35S537.56,780.81,537.56,798.12Z"/><path class="cls-10" d="M541.61,797.86c0,17,84.74,30.72,189.28,30.72s189.28-13.76,189.28-30.72-84.74-30.73-189.28-30.73S541.61,780.89,541.61,797.86Z"/><path class="cls-11" d="M545.65,797.59c0,16.62,82.94,30.1,185.24,30.1s185.23-13.48,185.23-30.1-82.93-30.1-185.23-30.1S545.65,781,545.65,797.59Z"/><path class="cls-12" d="M549.7,797.32c0,16.28,81.12,29.47,181.19,29.47s181.19-13.19,181.19-29.47S831,767.85,730.89,767.85,549.7,781.05,549.7,797.32Z"/><path class="cls-13" d="M553.75,797.06c0,15.92,79.31,28.84,177.14,28.84S908,813,908,797.06s-79.31-28.85-177.14-28.85S553.75,781.13,553.75,797.06Z"/><path class="cls-14" d="M557.79,796.79c0,15.58,77.5,28.21,173.1,28.21S904,812.37,904,796.79s-77.5-28.21-173.1-28.21S557.79,781.21,557.79,796.79Z"/><path class="cls-15" d="M561.84,796.52c0,15.24,75.68,27.59,169,27.59s169.05-12.35,169.05-27.59-75.69-27.58-169.05-27.58S561.84,781.29,561.84,796.52Z"/><path class="cls-16" d="M565.88,796.25c0,14.89,73.88,27,165,27s165-12.07,165-27-73.87-27-165-27S565.88,781.37,565.88,796.25Z"/><path class="cls-17" d="M569.93,796c0,14.54,72.06,26.33,161,26.33s161-11.79,161-26.33-72.06-26.33-161-26.33S569.93,781.45,569.93,796Z"/><path class="cls-18" d="M574,795.72c0,14.19,70.26,25.7,156.92,25.7s156.91-11.51,156.91-25.7S817.55,770,730.89,770,574,781.53,574,795.72Z"/><path class="cls-19" d="M578,795.45c0,13.85,68.44,25.08,152.87,25.08s152.87-11.23,152.87-25.08-68.44-25.07-152.87-25.07S578,781.61,578,795.45Z"/><path class="cls-20" d="M582.07,795.19c0,13.5,66.63,24.44,148.82,24.44s148.82-10.94,148.82-24.44-66.63-24.44-148.82-24.44S582.07,781.69,582.07,795.19Z"/><path class="cls-21" d="M586.11,794.92c0,13.15,64.82,23.82,144.78,23.82s144.78-10.67,144.78-23.82-64.82-23.81-144.78-23.81S586.11,781.77,586.11,794.92Z"/><path class="cls-22" d="M590.16,794.65c0,12.81,63,23.19,140.73,23.19s140.73-10.38,140.73-23.19-63-23.18-140.73-23.18S590.16,781.85,590.16,794.65Z"/><path class="cls-23" d="M594.2,794.39c0,12.45,61.2,22.55,136.69,22.55s136.68-10.1,136.68-22.55-61.19-22.56-136.68-22.56S594.2,781.93,594.2,794.39Z"/><path class="cls-24" d="M598.25,794.12c0,12.11,59.38,21.93,132.64,21.93s132.64-9.82,132.64-21.93-59.39-21.93-132.64-21.93S598.25,782,598.25,794.12Z"/><path class="cls-25" d="M602.29,793.85c0,11.77,57.58,21.3,128.6,21.3s128.59-9.53,128.59-21.3-57.57-21.3-128.59-21.3S602.29,782.09,602.29,793.85Z"/><path class="cls-26" d="M606.34,793.59c0,11.41,55.76,20.67,124.55,20.67S855.44,805,855.44,793.59s-55.76-20.67-124.55-20.67S606.34,782.17,606.34,793.59Z"/><path class="cls-27" d="M610.39,793.32c0,11.07,54,20,120.5,20s120.5-9,120.5-20-53.95-20-120.5-20S610.39,782.25,610.39,793.32Z"/><path class="cls-28" d="M614.43,793.05c0,10.73,52.14,19.42,116.46,19.42s116.45-8.69,116.45-19.42-52.13-19.41-116.45-19.41S614.43,782.33,614.43,793.05Z"/><path class="cls-29" d="M618.48,792.79c0,10.37,50.33,18.78,112.41,18.78s112.41-8.41,112.41-18.78S793,774,730.89,774,618.48,782.41,618.48,792.79Z"/><path class="cls-30" d="M622.52,792.52c0,10,48.52,18.16,108.37,18.16s108.36-8.13,108.36-18.16-48.51-18.16-108.36-18.16S622.52,782.49,622.52,792.52Z"/><path class="cls-31" d="M626.57,792.25c0,9.68,46.7,17.53,104.32,17.53s104.32-7.85,104.32-17.53-46.71-17.53-104.32-17.53S626.57,782.57,626.57,792.25Z"/><path class="cls-32" d="M630.62,792c0,9.33,44.89,16.9,100.27,16.9s100.27-7.57,100.27-16.9-44.89-16.9-100.27-16.9S630.62,782.65,630.62,792Z"/><path class="cls-33" d="M634.66,791.72c0,9,43.08,16.27,96.23,16.27s96.23-7.28,96.23-16.27S784,775.45,730.89,775.45,634.66,782.73,634.66,791.72Z"/><path class="cls-34" d="M638.71,791.45c0,8.64,41.27,15.65,92.18,15.65s92.18-7,92.18-15.65-41.27-15.64-92.18-15.64S638.71,782.81,638.71,791.45Z"/><path class="cls-35" d="M642.75,791.19c0,8.29,39.46,15,88.14,15s88.13-6.72,88.13-15-39.45-15-88.13-15S642.75,782.89,642.75,791.19Z"/><path class="cls-36" d="M646.8,790.92c0,8,37.65,14.39,84.09,14.39S815,798.87,815,790.92s-37.65-14.39-84.09-14.39S646.8,783,646.8,790.92Z"/><path class="cls-37" d="M650.84,790.65c0,7.6,35.84,13.76,80,13.76s80-6.16,80-13.76-35.83-13.76-80-13.76S650.84,783.05,650.84,790.65Z"/><path class="cls-38" d="M654.89,790.39c0,7.25,34,13.13,76,13.13s76-5.88,76-13.13-34-13.13-76-13.13S654.89,783.13,654.89,790.39Z"/><path class="cls-39" d="M658.94,790.12c0,6.9,32.21,12.5,71.95,12.5s72-5.6,72-12.5-32.21-12.5-72-12.5S658.94,783.22,658.94,790.12Z"/><path class="cls-40" d="M663,789.85c0,6.56,30.4,11.88,67.91,11.88s67.9-5.32,67.9-11.88S768.39,778,730.89,778,663,783.3,663,789.85Z"/><path class="cls-41" d="M667,789.59c0,6.21,28.59,11.24,63.86,11.24s63.86-5,63.86-11.24-28.59-11.25-63.86-11.25S667,783.38,667,789.59Z"/><path class="cls-42" d="M671.07,789.32c0,5.86,26.78,10.62,59.82,10.62s59.81-4.76,59.81-10.62-26.78-10.62-59.81-10.62S671.07,783.46,671.07,789.32Z"/><path class="cls-43" d="M675.12,789.05c0,5.52,25,10,55.77,10s55.77-4.47,55.77-10-25-10-55.77-10S675.12,783.54,675.12,789.05Z"/><path class="cls-44" d="M679.17,788.79c0,5.17,23.15,9.36,51.72,9.36s51.72-4.19,51.72-9.36-23.15-9.36-51.72-9.36S679.17,783.62,679.17,788.79Z"/><path class="cls-45" d="M683.21,788.52c0,4.82,21.35,8.73,47.68,8.73s47.68-3.91,47.68-8.73-21.35-8.73-47.68-8.73S683.21,783.7,683.21,788.52Z"/><path class="cls-46" d="M687.26,788.25c0,4.48,19.53,8.11,43.63,8.11s43.63-3.63,43.63-8.11-19.53-8.1-43.63-8.1S687.26,783.78,687.26,788.25Z"/><path class="cls-47" d="M691.3,788c0,4.12,17.73,7.47,39.59,7.47s39.58-3.35,39.58-7.47-17.72-7.48-39.58-7.48S691.3,783.86,691.3,788Z"/><path class="cls-48" d="M695.35,787.72c0,3.78,15.91,6.85,35.54,6.85s35.54-3.07,35.54-6.85-15.91-6.85-35.54-6.85S695.35,783.94,695.35,787.72Z"/><path class="cls-49" d="M699.39,787.45c0,3.44,14.1,6.22,31.5,6.22s31.49-2.78,31.49-6.22-14.1-6.22-31.49-6.22S699.39,784,699.39,787.45Z"/><path class="cls-50" d="M703.44,787.19c0,3.08,12.29,5.59,27.45,5.59s27.45-2.51,27.45-5.59-12.29-5.59-27.45-5.59S703.44,784.1,703.44,787.19Z"/></g><text class="cls-51" transform="translate(329.75 592.73)"><tspan xml:space="preserve"> S</tspan><tspan class="cls-52" x="47.68" y="0">T</tspan><tspan x="73.68" y="0">. JOSEPH 2040</tspan></text><path class="cls-53" d="M224.52,392.41l136.28.11a9.51,9.51,0,0,1,9.84,9.44,10.09,10.09,0,0,1-9.77,10.22l-136.27-.11a9.56,9.56,0,0,1-9.87-9.44A10.13,10.13,0,0,1,224.52,392.41Z"/><path class="cls-53" d="M224.47,421.68l136.3.11a9.54,9.54,0,0,1,9.86,9.45,10.13,10.13,0,0,1-9.8,10.21l-136.26-.11a9.56,9.56,0,0,1-9.88-9.44A10.15,10.15,0,0,1,224.47,421.68Z"/><path class="cls-53" d="M224.47,451l136.27.11a9.55,9.55,0,0,1,9.87,9.43,10.16,10.16,0,0,1-9.8,10.22l-136.29-.12a9.53,9.53,0,0,1-9.86-9.47A10.13,10.13,0,0,1,224.47,451Z"/><path class="cls-53" d="M247.37,480.23l90.42.07a9.66,9.66,0,0,1,9.86,9.55c0,5.44-8.52,8.46-15.7,9s-23.09,17.63-39.53,17.66-31.8-16.78-40.14-17.72c-6.11-.69-14.67-3.07-14.7-8.51A10.06,10.06,0,0,1,247.37,480.23Z"/><path class="cls-53" d="M282.79,516.45c.67,25.24.59,50.47,7.49,75,5.73,20.37,17.66,39.2,35,51.59,30.28,21.7,70.14,23,106,22.75,22.81-.16,45.74-3.36,68.35-6.09,23-2.78,46.09-5.66,69.28-6.86a332.46,332.46,0,0,1,33.56-.19c11.44.57,22.56,2.47,33.88,4,19.77,2.62,38.09,10.31,52.64,24.1,17.61,16.68,24.49,43.14,31.2,65.6,1.35,4.53,7,6.57,11.18,5,4.65-1.79,6.32-6.66,5-11.18-7-23.43-14.53-49.32-31.47-67.73-14.68-16-33.69-25.92-54.67-30.84-44.92-10.53-91.75-6.3-137-.91-41.21,4.9-82.8,10.87-124.06,6.24-16.84-1.89-34.36-5.79-48.62-14.47-17.11-10.4-27.64-26.65-33.54-45.72-7.13-23-6.21-48.06-6.84-71.9-.13-4.72-5-8.2-9.46-7.77C285.61,507.48,282.67,511.74,282.79,516.45Z"/><polygon class="cls-54" points="214.09 131.62 214.05 131.71 214.18 131.64 214.09 131.62"/><polygon class="cls-54" points="337.97 137.74 337.87 137.81 338.01 137.78 337.97 137.74"/><polygon class="cls-54" points="271.7 310.77 328.72 352.94 271.92 310.8 271.7 310.77"/><polygon class="cls-54" points="271.31 310.73 335.46 390.31 271.5 310.75 271.31 310.73"/><polygon class="cls-54" points="338.1 137.76 338.01 137.78 338.12 137.9 338.1 137.76"/><polygon class="cls-54" points="267.64 103.06 267.58 103.06 267.6 103.09 267.63 103.12 267.64 103.06"/><path class="cls-55" d="M429.61,260.73l-.07-.14-.06.2Z"/><polygon class="cls-55" points="266.08 200.61 301.6 207.93 273.69 189.22 266.08 200.61"/><polygon class="cls-56" points="253.92 218.78 301.6 207.93 266.08 200.61 253.92 218.78"/><polygon class="cls-57" points="221.29 267.55 301.6 207.93 253.92 218.78 221.29 267.55"/><polygon class="cls-58" points="253.92 218.78 206.06 229.68 221.29 267.55 253.92 218.78"/><polygon class="cls-59" points="273.69 189.22 301.6 207.93 282.24 176.44 273.69 189.22"/><polygon class="cls-60" points="342.13 187.36 282.24 176.44 301.6 207.93 323.34 211.06 342.13 187.36"/><polygon class="cls-61" points="323.34 211.06 374.37 218.41 342.13 187.36 323.34 211.06"/><polygon class="cls-62" points="305.21 144.86 287.2 124.85 260.55 140.5 282.24 176.44 305.21 144.86"/><polygon class="cls-63" points="374.37 218.41 383.87 204.27 342.13 187.36 374.37 218.41"/><polygon class="cls-64" points="337.87 137.81 305.21 144.86 282.24 176.44 337.87 137.81"/><polygon class="cls-65" points="282.24 176.44 260.55 140.5 243.25 168.81 273.69 189.22 282.24 176.44"/><polygon class="cls-66" points="266.08 200.61 228.55 192.87 206.06 229.68 253.92 218.78 266.08 200.61"/><polygon class="cls-67" points="243.25 168.81 228.55 192.87 266.08 200.61 273.69 189.22 243.25 168.81"/><polygon class="cls-68" points="399.74 180.64 423.68 165.6 388.21 143.25 376.9 158.37 399.74 180.64"/><polygon class="cls-69" points="342.13 187.36 383.87 204.27 367.76 170.59 342.13 187.36"/><polygon class="cls-70" points="383.87 204.27 399.74 180.64 367.76 170.59 383.87 204.27"/><polygon class="cls-71" points="267.63 103.12 267.6 103.09 214.18 131.64 260.55 140.5 267.63 103.12"/><polygon class="cls-69" points="348.36 130.53 345.37 109.4 312.7 109.87 337.97 137.74 348.36 130.53"/><polygon class="cls-57" points="287.2 124.85 312.7 109.87 267.64 103.06 267.63 103.12 287.2 124.85"/><polygon class="cls-72" points="337.87 137.81 337.97 137.74 312.7 109.87 305.21 144.86 337.87 137.81"/><polygon class="cls-57" points="340.92 172.43 338.12 137.9 338.01 137.78 337.87 137.81 282.24 176.44 340.92 172.43"/><polygon class="cls-73" points="367.76 170.59 399.74 180.64 376.9 158.37 367.76 170.59"/><polygon class="cls-56" points="388.21 143.25 348.36 130.53 376.9 158.37 388.21 143.25"/><polygon class="cls-58" points="348.36 130.53 373.42 109.29 373.29 109.01 345.37 109.4 348.36 130.53"/><polygon class="cls-60" points="388.21 143.25 373.42 109.29 348.36 130.53 388.21 143.25"/><polygon class="cls-74" points="305.21 144.86 312.7 109.87 287.2 124.85 305.21 144.86"/><polygon class="cls-69" points="271.12 310.21 271.92 310.8 271.92 310.8 328.72 352.94 312.61 315.8 271.12 310.21"/><polygon class="cls-59" points="328.72 352.94 343.82 319.64 333.31 318.35 328.72 352.94"/><polygon class="cls-70" points="312.61 315.8 328.72 352.94 333.31 318.35 312.61 315.8"/><polygon class="cls-66" points="333.31 318.35 343.82 319.64 363.26 276.77 337.6 286.09 333.31 318.35"/><polygon class="cls-62" points="304.87 297.96 271.12 310.21 312.61 315.8 304.87 297.96"/><polygon class="cls-65" points="312.61 315.8 333.31 318.35 337.6 286.09 304.87 297.96 312.61 315.8"/><polygon class="cls-73" points="191.2 185.17 164.12 160.14 160.81 211.47 191.2 185.17"/><polygon class="cls-63" points="160.81 211.47 160.07 222.96 174.44 225.06 191.2 185.17 160.81 211.47"/><path class="cls-65" d="M328.72,352.94l66.79-26.87.05-.07-51.74-6.36Z"/><path class="cls-75" d="M413.3,268.32l16.18-7.53.06-.2L404,212.42Z"/><path class="cls-76" d="M420.71,283.93a170.46,170.46,0,0,0,8.77-23.14l-16.18,7.53Z"/><path class="cls-77" d="M435.23,205.36,404,212.42l25.53,48.17a165.6,165.6,0,0,0,5.2-24.27A127.36,127.36,0,0,0,435.23,205.36Z"/><path class="cls-68" d="M343.82,319.64,395.56,326l.25-.36-32.55-48.87Z"/><polygon class="cls-78" points="267.63 103.12 260.55 140.5 287.2 124.85 267.63 103.12"/><polygon class="cls-79" points="342.13 187.36 367.76 170.59 340.92 172.43 342.13 187.36"/><polygon class="cls-77" points="367.76 170.59 338.12 137.9 340.92 172.43 367.76 170.59"/><polygon class="cls-80" points="282.24 176.44 342.13 187.36 340.92 172.43 282.24 176.44"/><polygon class="cls-57" points="338.01 137.78 338.1 137.76 338.12 137.9 367.76 170.59 376.9 158.37 348.36 130.53 337.97 137.74 338.01 137.78"/><polygon class="cls-81" points="287.02 256.85 342.66 247.95 315.26 221.24 287.02 256.85"/><polygon class="cls-70" points="301.6 207.93 287.02 256.85 315.26 221.24 301.6 207.93"/><polygon class="cls-74" points="367.39 255.09 374.37 218.41 342.66 247.95 367.39 255.09"/><polygon class="cls-65" points="221.66 267.29 282.69 271.38 293.65 272.11 287.02 256.85 221.66 267.29"/><polygon class="cls-74" points="207.49 188.53 206.06 229.68 228.55 192.87 207.49 188.53"/><polygon class="cls-82" points="221.03 390.03 283.18 390.18 266 361.56 221.03 390.03"/><polygon class="cls-74" points="323.34 211.06 301.6 207.93 315.26 221.24 323.34 211.06"/><polygon class="cls-57" points="315.26 221.24 342.66 247.95 374.37 218.41 323.34 211.06 315.26 221.24"/><path class="cls-80" d="M214.18,131.64l53.42-28.55,0,0-40.78-3a153.39,153.39,0,0,0-37.45,26.74l.13.13,24.61,4.7Z"/><path class="cls-83" d="M254.93,89a154.33,154.33,0,0,0-28.13,11l40.78,3Z"/><path class="cls-84" d="M189.48,126.92l-.22,0A137.1,137.1,0,0,0,164.17,160L209,145.84Z"/><path class="cls-85" d="M164.12,160.14l0,0a122.89,122.89,0,0,0-14.72,61.25l11.43-9.9Z"/><path class="cls-65" d="M209,145.84,164.17,160l0,.07v.08l27.08,25Z"/><path class="cls-80" d="M345.37,109.4l27.92-.39.26-.17a155.76,155.76,0,0,0-44.77-20.26l16.57,20.7Z"/><path class="cls-80" d="M405.25,136.83A149.36,149.36,0,0,0,373.78,109l-.36.3,14.79,34Z"/><path class="cls-86" d="M345.37,109.4l0-.12-16.57-20.7-.09,0-16,21.31Z"/><path class="cls-58" d="M328.69,88.56a141.19,141.19,0,0,0-35-5h-1.38a142.09,142.09,0,0,0-36.9,5.33l57.31,21Z"/><path class="cls-64" d="M267.64,103.06l45.06,6.81-57.31-21-.46.13,12.65,14Z"/><path class="cls-76" d="M175.79,305c8.09,13.39,16.81,25.19,24.36,36.43l13-38.51Z"/><path class="cls-57" d="M170.72,296.14c1.65,3,3.35,5.95,5.07,8.81l3-7.52Z"/><polygon class="cls-87" points="178.82 297.43 175.79 304.95 213.13 302.87 178.82 297.43"/><polygon class="cls-80" points="178.82 297.43 213.13 302.87 184.31 283.76 178.82 297.43"/><path class="cls-63" d="M184.31,283.76l-26.89-17.84a181.56,181.56,0,0,0,13.3,30.22l8.1,1.29Z"/><path class="cls-73" d="M214.52,366.5A63.18,63.18,0,0,1,220,390h1l45-28.46Z"/><path class="cls-79" d="M200.43,341.81c5.62,8.39,10.57,16.48,14.09,24.69L266,361.57Z"/><polygon class="cls-88" points="271.5 310.75 271.25 310.44 271.7 310.77 271.92 310.8 271.92 310.8 271.12 310.21 266 361.56 334.89 390.31 335.46 390.31 271.31 310.73 271.5 310.75"/><path class="cls-59" d="M149.38,221.4a129,129,0,0,0,1.1,14.23,164.08,164.08,0,0,0,6.84,30L160.07,223Z"/><path class="cls-85" d="M160.07,223l-2.75,42.66,0,.08,0,0,17.07-40.62Z"/><path class="cls-57" d="M160.81,211.46l-11.43,9.9v0L160.07,223Z"/><polygon class="cls-87" points="283.18 390.18 334.89 390.31 266 361.56 283.18 390.18"/><polygon class="cls-89" points="271.7 310.77 271.25 310.44 271.5 310.75 335.46 390.31 335.74 390.31 328.72 352.94 271.7 310.77"/><path class="cls-57" d="M213.35,303.11l-.22-.24-13,38.51c.09.14.19.28.28.43L266,361.57Z"/><polygon class="cls-75" points="174.44 225.06 157.38 265.68 206.06 229.68 174.44 225.06"/><path class="cls-55" d="M423.68,165.6l.19-.12a133.58,133.58,0,0,0-18.62-28.65l-17,6.42Z"/><polygon class="cls-57" points="174.44 225.06 206.06 229.68 191.2 185.17 174.44 225.06"/><polygon class="cls-59" points="191.2 185.17 206.06 229.68 207.49 188.53 191.2 185.17"/><polygon class="cls-66" points="266 361.56 271.12 310.21 239.99 306.27 266 361.56"/><polygon class="cls-66" points="221.66 267.29 287.02 256.85 301.6 207.93 221.29 267.55 213.13 302.87 239.99 306.27 221.66 267.29"/><polygon class="cls-90" points="213.13 302.87 213.35 303.11 266 361.56 239.99 306.27 213.13 302.87"/><polygon class="cls-79" points="208.97 145.84 191.2 185.17 207.49 188.53 208.97 145.84"/><polygon class="cls-66" points="214.18 131.64 214.05 131.71 208.97 145.84 260.55 140.5 214.18 131.64"/><polygon class="cls-69" points="214.05 131.71 214.09 131.62 189.49 126.92 208.97 145.84 214.05 131.71"/><polygon class="cls-91" points="228.55 192.87 243.25 168.81 208.97 145.84 207.49 188.53 228.55 192.87"/><polygon class="cls-77" points="260.55 140.5 208.97 145.84 243.25 168.81 260.55 140.5"/><polygon class="cls-92" points="206.06 229.68 184.31 283.76 213.13 302.87 221.29 267.55 206.06 229.68"/><path class="cls-73" d="M206.06,229.68l-48.68,36,0,.05.06.19,26.89,17.84Z"/><path class="cls-73" d="M372.93,360.84c5.83-11.26,14-22.47,22.58-34.77l-66.79,26.87Z"/><path class="cls-66" d="M435.23,205.36c-.41-3.85-1-7.64-1.77-11.36L404,212.42Z"/><path class="cls-62" d="M335.74,390.31l28.7.07c.3-10.36,3.54-20,8.49-29.54l-44.21-7.9Z"/><path class="cls-92" d="M383.87,204.27,404,212.42,433.46,194a121.36,121.36,0,0,0-4.13-15.16l-29.59,1.8Z"/><polygon class="cls-65" points="374.37 218.41 413.3 268.32 404.01 212.42 383.87 204.27 374.37 218.41"/><path class="cls-58" d="M399.74,180.64l29.59-1.8a125.9,125.9,0,0,0-5.46-13.36l-.19.12Z"/><polygon class="cls-85" points="221.66 267.29 271.12 310.21 282.69 271.38 221.66 267.29"/><polygon class="cls-93" points="239.99 306.27 271.12 310.21 221.66 267.29 239.99 306.27"/><polygon class="cls-88" points="337.6 286.09 363.26 276.77 339.05 275.15 337.6 286.09"/><polygon class="cls-68" points="304.87 297.96 337.6 286.09 339.05 275.15 293.65 272.11 304.87 297.96"/><polygon class="cls-91" points="293.65 272.11 282.69 271.38 271.12 310.21 304.87 297.96 293.65 272.11"/><polygon class="cls-94" points="367.39 255.09 413.3 268.32 374.37 218.41 367.39 255.09"/><polygon class="cls-61" points="293.65 272.11 339.05 275.15 342.66 247.95 287.02 256.85 293.65 272.11"/><polygon class="cls-82" points="342.66 247.95 339.05 275.15 363.26 276.77 367.39 255.09 342.66 247.95"/><polygon class="cls-80" points="363.26 276.77 413.3 268.32 367.39 255.09 363.26 276.77"/><path class="cls-57" d="M395.81,325.64c8.57-12.34,17.51-25.78,24.8-41.48l0-.08-57.38-7.31Z"/><path class="cls-78" d="M363.26,276.77l57.38,7.31a1,1,0,0,0,.07-.15l-7.41-15.61Z"/><path class="cls-91" d="M421.28,87.6c-4.27,4.32-4.64,11-.83,14.72s10.44,3.31,14.71-1l10.33-10.46-5.64-22Z"/><path class="cls-60" d="M443.06,65.54l-3.21,3.25,5.64,22,11.45-11.59c4.27-4.33,4.65-11,.83-14.72S447.33,61.22,443.06,65.54Z"/><path class="cls-72" d="M150.16,105.45c4.33,4.27,11,4.65,14.72.83s3.31-10.44-1-14.71l-18.3-18.06-4.8,22.66Z"/><path class="cls-73" d="M140.77,96.17l4.8-22.66-3.76-3.72c-4.32-4.27-10.95-4.64-14.72-.83s-3.31,10.44,1,14.71Z"/><path class="cls-86" d="M439.6,368.17l.76,27.88c4.21,2.87,9.69,2.73,13-.6,3.77-3.82,3.32-10.44-1-14.71Z"/><path class="cls-73" d="M430.28,359c-4.33-4.27-10.95-4.65-14.72-.83s-3.32,10.44,1,14.71l22.05,21.78a13,13,0,0,0,1.74,1.43l-.76-27.88Z"/><path class="cls-66" d="M171.58,359.66c-3.82-3.77-10.44-3.31-14.71,1l-19.6,19.85,19.88,7.62,13.6-13.77C175,370.06,175.4,363.43,171.58,359.66Z"/><path class="cls-95" d="M135.09,382.73c-4.27,4.33-4.64,10.95-.83,14.72s10.44,3.31,14.71-1l8.18-8.29-19.88-7.62Z"/><polygon class="cls-61" points="292.94 30.72 304.08 38.69 303.94 16.08 292.94 30.72"/><path class="cls-74" d="M284.59,41.82v.29c0,6.08,4.46,11,9.83,11s9.72-5,9.68-11.11l0-3.3-11.14-8Z"/><path class="cls-79" d="M303.94,16.08l0-5.09c0-6.08-4.46-11-9.83-11s-9.72,5-9.68,11.12l.09,13.55,8.45,6Z"/><polygon class="cls-95" points="284.49 24.68 284.59 41.82 292.94 30.72 284.49 24.68"/><polygon class="cls-95" points="98.87 235.66 81.1 235.77 87.31 244.04 98.87 235.66"/><path class="cls-62" d="M117.54,245.29c0-5.36-5-9.72-11.11-9.68l-7.56,0L87.31,244l8.35,11.14,10.89-.06C112.63,255.08,117.58,250.66,117.54,245.29Z"/><path class="cls-96" d="M81.1,235.77l-5.67,0c-6.08,0-11,4.46-11,9.83,0,4.38,3.36,8.08,7.9,9.27l15-10.86Z"/><path class="cls-95" d="M72.34,254.9a12.12,12.12,0,0,0,3.21.41l20.11-.13L87.31,244Z"/><path class="cls-57" d="M509.85,233.08h-1.58l-18.79,19.62,20.49-.13c6.08,0,11-4.45,11-9.82S515.93,233,509.85,233.08Z"/><path class="cls-62" d="M478.85,233.27c-6.08,0-11,4.46-11,9.82s5,9.73,11.11,9.69l10.51-.07,18.79-19.62Z"/><text class="cls-51" transform="translate(0 592.73)">IM<tspan class="cls-97" x="59.59" y="0">A</tspan><tspan x="95.7" y="0">GINE</tspan></text></g></g></g></svg>